<?xml version="1.0" encoding="UTF-8" standalone="no"?>
<!DOCTYPE svg PUBLIC "-//W3C//DTD SVG 1.1//EN" "http://www.w3.org/Graphics/SVG/1.1/DTD/svg11.dtd">
<!-- Created with Vectornator (http://vectornator.io/) -->
<svg height="100%" stroke-miterlimit="10" style="fill-rule:nonzero;clip-rule:evenodd;stroke-linecap:round;stroke-linejoin:round;" version="1.1" viewBox="0 0 180 180" width="100%" xml:space="preserve" xmlns="http://www.w3.org/2000/svg" xmlns:vectornator="http://vectornator.io" xmlns:xlink="http://www.w3.org/1999/xlink">
<defs/>
<g id="Layer-2" vectornator:layerName="Layer 2">
<path d="M153.374 90.0493C153.356 113.489 124.967 132.469 89.967 132.442C54.9666 132.415 26.6079 113.391 26.6262 89.9507" fill="#ffffff" fill-opacity="0.00878257" fill-rule="nonzero" opacity="1" stroke="#ffffff" stroke-linecap="butt" stroke-linejoin="round" stroke-width="10" vectornator:layerName="Curve 1"/>
<path d="M89.9544 148.606L89.9389 168.563" fill="none" opacity="1" stroke="#ffffff" stroke-linecap="butt" stroke-linejoin="round" stroke-width="10" vectornator:layerName="Line 1"/>
<path d="M89.9413 165.506C89.94 167.195 89.9389 168.563 89.9389 168.563C89.9389 168.563 89.94 167.195 89.9413 165.506C89.9426 163.818 89.9437 162.449 89.9437 162.449C89.9437 162.449 89.9426 163.818 89.9413 165.506Z" fill="#ffffff" fill-opacity="0.00878257" fill-rule="nonzero" opacity="1" stroke="#ffffff" stroke-linecap="butt" stroke-linejoin="round" stroke-width="10" vectornator:layerName="Oval 2"/>
<path d="M89.9505 153.595C89.9484 156.351 89.9467 158.585 89.9467 158.585C89.9467 158.585 89.9484 156.351 89.9505 153.595C89.9527 150.84 89.9544 148.606 89.9544 148.606C89.9544 148.606 89.9527 150.84 89.9505 153.595Z" fill="#ffffff" fill-opacity="0.00878257" fill-rule="nonzero" opacity="1" stroke="#ffffff" stroke-linecap="butt" stroke-linejoin="round" stroke-width="10" vectornator:layerName="Oval 3"/>
<path d="M49.9953 139.969L39.9477 157.213" fill="none" opacity="1" stroke="#ffffff" stroke-linecap="butt" stroke-linejoin="round" stroke-width="10" vectornator:layerName="Line 2"/>
<path d="M41.4869 154.571C40.6368 156.03 39.9477 157.213 39.9477 157.213C39.9477 157.213 40.6368 156.03 41.4869 154.571C42.337 153.112 43.0262 151.929 43.0262 151.929C43.0262 151.929 42.337 153.112 41.4869 154.571Z" fill="#ffffff" fill-opacity="0.00878257" fill-rule="nonzero" opacity="1" stroke="#ffffff" stroke-linecap="butt" stroke-linejoin="round" stroke-width="10" vectornator:layerName="Oval 4"/>
<path d="M47.4834 144.28C46.0961 146.661 44.9715 148.591 44.9715 148.591C44.9715 148.591 46.0961 146.661 47.4834 144.28C48.8707 141.899 49.9953 139.969 49.9953 139.969C49.9953 139.969 48.8707 141.899 47.4834 144.28Z" fill="#ffffff" fill-opacity="0.00878257" fill-rule="nonzero" opacity="1" stroke="#ffffff" stroke-linecap="butt" stroke-linejoin="round" stroke-width="10" vectornator:layerName="Oval 5"/>
<path d="M129.961 140.031L139.982 157.29" fill="none" opacity="1" stroke="#ffffff" stroke-linecap="butt" stroke-linejoin="round" stroke-width="10" vectornator:layerName="Line 3"/>
<path d="M138.447 154.646C139.295 156.107 139.982 157.29 139.982 157.29C139.982 157.29 139.295 156.107 138.447 154.646C137.599 153.186 136.912 152.002 136.912 152.002C136.912 152.002 137.599 153.186 138.447 154.646Z" fill="#ffffff" fill-opacity="0.00878257" fill-rule="nonzero" opacity="1" stroke="#ffffff" stroke-linecap="butt" stroke-linejoin="round" stroke-width="10" vectornator:layerName="Oval 6"/>
<path d="M132.466 144.346C133.85 146.729 134.971 148.661 134.971 148.661C134.971 148.661 133.85 146.729 132.466 144.346C131.083 141.963 129.961 140.031 129.961 140.031C129.961 140.031 131.083 141.963 132.466 144.346Z" fill="#ffffff" fill-opacity="0.00878257" fill-rule="nonzero" opacity="1" stroke="#ffffff" stroke-linecap="butt" stroke-linejoin="round" stroke-width="10" vectornator:layerName="Oval 7"/>
<path d="M26.6262 89.9754C26.6262 89.9618 26.6262 89.9507 26.6262 89.9507C26.6262 89.9507 26.6262 89.9618 26.6262 89.9754C26.6262 89.989 26.6262 90 26.6262 90C26.6262 90 26.6262 89.989 26.6262 89.9754Z" fill="#ffffff" fill-opacity="0.00878257" fill-rule="nonzero" opacity="1" stroke="#ffffff" stroke-linecap="butt" stroke-linejoin="round" stroke-width="10" vectornator:layerName="Oval 8"/>
<path d="M153.374 89.9754C153.374 89.9618 153.374 89.9507 153.374 89.9507C153.374 89.9507 153.374 89.9618 153.374 89.9754C153.374 89.989 153.374 90 153.374 90C153.374 90 153.374 89.989 153.374 89.9754Z" fill="#ffffff" fill-opacity="0.00878257" fill-rule="nonzero" opacity="1" stroke="#ffffff" stroke-linecap="butt" stroke-linejoin="round" stroke-width="10" vectornator:layerName="Oval 9"/>
</g>
</svg>
