<?xml version="1.0" encoding="UTF-8" standalone="no"?>
<!DOCTYPE svg PUBLIC "-//W3C//DTD SVG 1.1//EN" "http://www.w3.org/Graphics/SVG/1.1/DTD/svg11.dtd">
<!-- Created with Vectornator (http://vectornator.io/) -->
<svg height="100%" stroke-miterlimit="10" style="fill-rule:nonzero;clip-rule:evenodd;stroke-linecap:round;stroke-linejoin:round;" version="1.1" viewBox="0 0 180 180" width="100%" xml:space="preserve" xmlns="http://www.w3.org/2000/svg" xmlns:vectornator="http://vectornator.io" xmlns:xlink="http://www.w3.org/1999/xlink">
<defs/>
<g id="Layer-1" vectornator:layerName="Layer 1">
<path d="M26.6262 90C26.6262 66.5601 54.9996 47.5582 90 47.5582C125 47.5582 153.374 66.5601 153.374 90C153.374 113.44 125 132.442 90 132.442C54.9996 132.442 26.6262 113.44 26.6262 90Z" fill="#ffffff" fill-opacity="0.00878257" fill-rule="nonzero" opacity="1" stroke="#ffffff" stroke-linecap="butt" stroke-linejoin="round" stroke-width="10" vectornator:layerName="Oval 1"/>
<g opacity="1" vectornator:layerName="Group 1">
<path d="M90 31.394L90 11.4365" fill="none" opacity="1" stroke="#ffffff" stroke-linecap="butt" stroke-linejoin="round" stroke-width="10" vectornator:layerName="Line 1"/>
<path d="M90 14.4939C90 12.8053 90 11.4365 90 11.4365C90 11.4365 90 12.8053 90 14.4939C90 16.1824 90 17.5512 90 17.5512C90 17.5512 90 16.1824 90 14.4939Z" fill="#ffffff" fill-opacity="0.00878257" fill-rule="nonzero" opacity="1" stroke="#ffffff" stroke-linecap="butt" stroke-linejoin="round" stroke-width="10" vectornator:layerName="Oval 2"/>
<path d="M90 26.4046C90 23.6491 90 21.4152 90 21.4152C90 21.4152 90 23.6491 90 26.4046C90 29.1602 90 31.394 90 31.394C90 31.394 90 29.1602 90 26.4046Z" fill="#ffffff" fill-opacity="0.00878257" fill-rule="nonzero" opacity="1" stroke="#ffffff" stroke-linecap="butt" stroke-linejoin="round" stroke-width="10" vectornator:layerName="Oval 3"/>
</g>
<g opacity="1" vectornator:layerName="Group 2">
<path d="M129.966 40L140 22.7485" fill="none" opacity="1" stroke="#ffffff" stroke-linecap="butt" stroke-linejoin="round" stroke-width="10" vectornator:layerName="Line 1"/>
<path d="M138.463 25.3913C139.312 23.9317 140 22.7485 140 22.7485C140 22.7485 139.312 23.9317 138.463 25.3913C137.614 26.8509 136.926 28.0341 136.926 28.0341C136.926 28.0341 137.614 26.8509 138.463 25.3913Z" fill="#ffffff" fill-opacity="0.00878257" fill-rule="nonzero" opacity="1" stroke="#ffffff" stroke-linecap="butt" stroke-linejoin="round" stroke-width="10" vectornator:layerName="Oval 2"/>
<path d="M132.474 35.6871C133.86 33.3052 134.983 31.3742 134.983 31.3742C134.983 31.3742 133.86 33.3052 132.474 35.6871C131.089 38.0691 129.966 40 129.966 40C129.966 40 131.089 38.0691 132.474 35.6871Z" fill="#ffffff" fill-opacity="0.00878257" fill-rule="nonzero" opacity="1" stroke="#ffffff" stroke-linecap="butt" stroke-linejoin="round" stroke-width="10" vectornator:layerName="Oval 3"/>
</g>
<g opacity="1" vectornator:layerName="Group 3">
<path d="M50 40L39.9658 22.7485" fill="none" opacity="1" stroke="#ffffff" stroke-linecap="butt" stroke-linejoin="round" stroke-width="10" vectornator:layerName="Line 1"/>
<path d="M41.503 25.3913C40.654 23.9317 39.9658 22.7485 39.9658 22.7485C39.9658 22.7485 40.654 23.9317 41.503 25.3913C42.3519 26.8509 43.0401 28.0341 43.0401 28.0341C43.0401 28.0341 42.3519 26.8509 41.503 25.3913Z" fill="#ffffff" fill-opacity="0.00878257" fill-rule="nonzero" opacity="1" stroke="#ffffff" stroke-linecap="butt" stroke-linejoin="round" stroke-width="10" vectornator:layerName="Oval 2"/>
<path d="M47.4915 35.6871C46.106 33.3052 44.9829 31.3742 44.9829 31.3742C44.9829 31.3742 46.106 33.3052 47.4915 35.6871C48.8769 38.0691 50 40 50 40C50 40 48.8769 38.0691 47.4915 35.6871Z" fill="#ffffff" fill-opacity="0.00878257" fill-rule="nonzero" opacity="1" stroke="#ffffff" stroke-linecap="butt" stroke-linejoin="round" stroke-width="10" vectornator:layerName="Oval 3"/>
</g>
<path d="M67.8684 90C67.8684 77.6659 77.7771 67.667 90 67.667C102.223 67.667 112.132 77.6659 112.132 90C112.132 102.334 102.223 112.333 90 112.333C77.7771 112.333 67.8684 102.334 67.8684 90Z" fill="#ffffff" fill-opacity="0.00878257" fill-rule="nonzero" opacity="1" stroke="#ffffff" stroke-linecap="butt" stroke-linejoin="round" stroke-width="20" vectornator:layerName="Oval 2"/>
<path d="M26.6262 90C26.6262 66.5601 54.9996 47.5582 90 47.5582C125 47.5582 153.374 66.5601 153.374 90C153.374 113.44 125 132.442 90 132.442C54.9996 132.442 26.6262 113.44 26.6262 90Z" fill="#ffffff" fill-opacity="0.00878257" fill-rule="nonzero" opacity="1" stroke="#ffffff" stroke-linecap="butt" stroke-linejoin="round" stroke-width="10" vectornator:layerName="Oval 3"/>
<path d="M90 31.394L90 11.4365" fill="none" opacity="1" stroke="#ffffff" stroke-linecap="butt" stroke-linejoin="round" stroke-width="10" vectornator:layerName="Line 1"/>
<path d="M90 14.4939C90 12.8053 90 11.4365 90 11.4365C90 11.4365 90 12.8053 90 14.4939C90 16.1824 90 17.5512 90 17.5512C90 17.5512 90 16.1824 90 14.4939Z" fill="#ffffff" fill-opacity="0.00878257" fill-rule="nonzero" opacity="1" stroke="#ffffff" stroke-linecap="butt" stroke-linejoin="round" stroke-width="10" vectornator:layerName="Oval 4"/>
<path d="M90 26.4046C90 23.6491 90 21.4152 90 21.4152C90 21.4152 90 23.6491 90 26.4046C90 29.1602 90 31.394 90 31.394C90 31.394 90 29.1602 90 26.4046Z" fill="#ffffff" fill-opacity="0.00878257" fill-rule="nonzero" opacity="1" stroke="#ffffff" stroke-linecap="butt" stroke-linejoin="round" stroke-width="10" vectornator:layerName="Oval 5"/>
<path d="M129.966 40L140 22.7485" fill="none" opacity="1" stroke="#ffffff" stroke-linecap="butt" stroke-linejoin="round" stroke-width="10" vectornator:layerName="Line 2"/>
<path d="M138.463 25.3913C139.312 23.9317 140 22.7485 140 22.7485C140 22.7485 139.312 23.9317 138.463 25.3913C137.614 26.8509 136.926 28.0341 136.926 28.0341C136.926 28.0341 137.614 26.8509 138.463 25.3913Z" fill="#ffffff" fill-opacity="0.00878257" fill-rule="nonzero" opacity="1" stroke="#ffffff" stroke-linecap="butt" stroke-linejoin="round" stroke-width="10" vectornator:layerName="Oval 6"/>
<path d="M132.474 35.6871C133.86 33.3052 134.983 31.3742 134.983 31.3742C134.983 31.3742 133.86 33.3052 132.474 35.6871C131.089 38.0691 129.966 40 129.966 40C129.966 40 131.089 38.0691 132.474 35.6871Z" fill="#ffffff" fill-opacity="0.00878257" fill-rule="nonzero" opacity="1" stroke="#ffffff" stroke-linecap="butt" stroke-linejoin="round" stroke-width="10" vectornator:layerName="Oval 7"/>
<path d="M50 40L39.9658 22.7485" fill="none" opacity="1" stroke="#ffffff" stroke-linecap="butt" stroke-linejoin="round" stroke-width="10" vectornator:layerName="Line 3"/>
<path d="M41.503 25.3913C40.654 23.9317 39.9658 22.7485 39.9658 22.7485C39.9658 22.7485 40.654 23.9317 41.503 25.3913C42.3519 26.8509 43.0401 28.0341 43.0401 28.0341C43.0401 28.0341 42.3519 26.8509 41.503 25.3913Z" fill="#ffffff" fill-opacity="0.00878257" fill-rule="nonzero" opacity="1" stroke="#ffffff" stroke-linecap="butt" stroke-linejoin="round" stroke-width="10" vectornator:layerName="Oval 8"/>
<path d="M47.4915 35.6871C46.106 33.3052 44.9829 31.3742 44.9829 31.3742C44.9829 31.3742 46.106 33.3052 47.4915 35.6871C48.8769 38.0691 50 40 50 40C50 40 48.8769 38.0691 47.4915 35.6871Z" fill="#ffffff" fill-opacity="0.00878257" fill-rule="nonzero" opacity="1" stroke="#ffffff" stroke-linecap="butt" stroke-linejoin="round" stroke-width="10" vectornator:layerName="Oval 9"/>
<path d="M67.8684 90C67.8684 77.6659 77.7771 67.667 90 67.667C102.223 67.667 112.132 77.6659 112.132 90C112.132 102.334 102.223 112.333 90 112.333C77.7771 112.333 67.8684 102.334 67.8684 90Z" fill="#ffffff" fill-opacity="0.00878257" fill-rule="nonzero" opacity="1" stroke="#ffffff" stroke-linecap="butt" stroke-linejoin="round" stroke-width="20" vectornator:layerName="Oval 10"/>
</g>
</svg>
